<svg xmlns="http://www.w3.org/2000/svg" viewBox="0 0 40 32">
  <path fill="#2557D6" d="M0 0h40v32H0z"/>
  <path fill="#FFF" d="M4.8 14.5h1.7l.4-1 .4 1h9.2v-.7l.2.7h2.3l.2-.7v.7h4.9v-1.5h.1c.1 0 .1 0 .1.2v1.3h2.5v-.3l.5.3h2.6l.4-1 .4 1h1.7l-.4-.9h.6l.4.9h1.7l-.4-.9-.4-.9-.4-.9h-1.7l-.3.6-.3-.6h-3.3v.2l-.2-.2h-2.6v.2l-.2-.2h-3.1l-.3.8-.3-.8h-2.3l-.3.8-.3-.8h-2.5v.2l-.2-.2H8.2l-.3.8-.3-.8H4.8l-.4.9-.4.9-.4.9h1.7l.4-.9h.6l.5.9zm.5-1.7h.9l.4 1 .4-1h.9v1.9h-.6v-1.5l-.5 1.5h-.5l-.5-1.5v1.5h-.6v-1.9h.1zm4.2 0h.7l.8 1.7v-1.7h.6v1.9h-.7l-.8-1.7v1.7h-.6v-1.9zm3.6 0h1.9v.4h-1.3v.3h1.2v.4h-1.2v.3h1.3v.4h-1.9v-1.8zm2.5 0h.6l.8 1.3v-1.3h.6v1.9h-.6l-.8-1.3v1.3h-.6v-1.9zm2.9 0h1.9v.4h-1.3v.3h1.2v.4h-1.2v.3h1.3v.4h-1.9v-1.8zm2.5.7v-.7h1.9v.7h-.6v1.2h-.6v-1.2h-.7zm2.5-.7h.6v1.9h-.6v-1.9zm1.2 0h.7l.8 1.7v-1.7h.6v1.9h-.7l-.8-1.7v1.7h-.6v-1.9zm3.6 0h1.9v.4h-1.3v.3h1.2v.4h-1.2v.3h1.3v.4h-1.9v-1.8zm-19.3 4.3h.7l.8 1.7v-1.7h.6v1.9h-.7l-.8-1.7v1.7h-.6v-1.9zm3.6 0h1.9v.4h-1.3v.3h1.2v.4h-1.2v.3h1.3v.4h-1.9v-1.8zm2.5 0h.6l.8 1.3v-1.3h.6v1.9h-.6l-.8-1.3v1.3h-.6v-1.9zm2.9 0h1.9v.4h-1.3v.3h1.2v.4h-1.2v.3h1.3v.4h-1.9v-1.8zm2.5.7v-.7h1.9v.7h-.6v1.2h-.6v-1.2h-.7zm2.5-.7h.6v1.9h-.6v-1.9zm1.2 0h.7l.8 1.7v-1.7h.6v1.9h-.7l-.8-1.7v1.7h-.6v-1.9zm3.6 0h1.9v.4h-1.3v.3h1.2v.4h-1.2v.3h1.3v.4h-1.9v-1.8z"/>
</svg>
