<svg xmlns="http://www.w3.org/2000/svg" viewBox="0 0 1000 324.68">
  <path fill="#00579f" d="M651.17,0c-70.64,0-133.7,36.6-133.7,102.42,0,75.61,113.6,81.46,113.6,119.63,0,16.19-18.33,30.74-49.44,30.74-44.1,0-77.24-19.92-77.24-19.92l-14.26,66.22s38.31,16.89,88.9,16.89c75.38,0,138.45-37.26,138.45-104.1,0-79.38-114.1-84.57-114.1-120.3,0-12.56,15.11-26.41,45.63-26.41,34.78,0,62.8,14.33,62.8,14.33l13.94-64.54S695.16,0,651.17,0"/>
  <path fill="#00579f" d="M2.54,5.72,0,19.86C42.8,30.85,81.54,48.15,114.58,69.63L96.92,5.72Z"/>
  <path fill="#faa61a" d="M96.92,5.72l17.66,63.91c33.05,21.47,60.52,47.88,80.31,69.91L177.25,5.72Z"/>
  <path fill="#00579f" d="M177.25,5.72l17.64,133.82c19.78,22,35.25,38.86,35.25,38.86l25.28-172.68Z"/>
  <path fill="#faa61a" d="M362.15,5.72H255.42L230.14,178.4s55.55,39.62,104.24,39.62c32.59,0,66.13-7.27,66.13-7.27Z"/>
  <path fill="#00579f" d="M446.61,5.72,384.23,210.75h85.71l62.38-205Z"/>
  <path fill="#00579f" d="M837.59,5.72,762.9,143.58,742.53,25.1c-3.18-18.12-15.72-19.38-30.33-19.38H619.6l-1.36,6.59c25.17,6.1,53.73,15.91,71.06,26.4,10.64,6.43,13.68,12,17.19,27.29l28.76,144.75h86.29L937.59,5.72Z"/>
  <path fill="#faa61a" d="M934.88,210.75h67.47L1000,5.72H932.53Z"/>
</svg>
